<?xml version="1.0" encoding="iso-8859-1"?>
<!-- Generator: Adobe Illustrator 18.1.1, SVG Export Plug-In . SVG Version: 6.00 Build 0)  -->
<svg version="1.1" id="Capa_1" xmlns="http://www.w3.org/2000/svg" xmlns:xlink="http://www.w3.org/1999/xlink" x="0px" y="0px"
	 viewBox="0 0 70 70" style="enable-background:new 0 0 70 70;" xml:space="preserve">
<g id="_x37_7_Essential_Icons_67_">
	<path id="Trash" d="M66,8.5H46V2c0-1.1-0.9-2-2-2H26c-1.1,0-2,0.9-2,2v6.5H4c-1.1,0-2,0.9-2,2s0.9,2,2,2h6.6V68c0,1.1,0.9,2,2,2
		h44.8c1.1,0,2-0.9,2-2V12.5H66c1.1,0,2-0.9,2-2S67.1,8.5,66,8.5z M28,4h14v4H28V4z M55.4,66H14.6V12.5h40.8V66z M46,23.3v32
		c0,1.1-0.9,2-2,2s-2-0.9-2-2v-32c0-1.1,0.9-2,2-2S46,22.1,46,23.3z M28,23.3v32c0,1.1-0.9,2-2,2s-2-0.9-2-2v-32c0-1.1,0.9-2,2-2
		S28,22.1,28,23.3z"/>
</g>
<g>
</g>
<g>
</g>
<g>
</g>
<g>
</g>
<g>
</g>
<g>
</g>
<g>
</g>
<g>
</g>
<g>
</g>
<g>
</g>
<g>
</g>
<g>
</g>
<g>
</g>
<g>
</g>
<g>
</g>
</svg>
